<svg width="311" height="74" viewBox="0 0 311 74" fill="none" xmlns="http://www.w3.org/2000/svg">
<path d="M6.19522 12.7003C9.61674 12.7003 12.3904 9.92656 12.3904 6.50503C12.3904 3.08351 9.61674 0.309814 6.19522 0.309814C2.77369 0.309814 0 3.08351 0 6.50503C0 9.92656 2.77369 12.7003 6.19522 12.7003Z" fill="#D8D8D8"/>
<path d="M56.0663 12.7C59.4878 12.7 62.2615 9.92631 62.2615 6.50479C62.2615 3.08326 59.4878 0.30957 56.0663 0.30957C52.6448 0.30957 49.8711 3.08326 49.8711 6.50479C49.8711 9.92631 52.6448 12.7 56.0663 12.7Z" fill="#D8D8D8"/>
<path d="M105.629 12.3904C109.05 12.3904 111.824 9.61674 111.824 6.19522C111.824 2.77369 109.05 0 105.629 0C102.207 0 99.4336 2.77369 99.4336 6.19522C99.4336 9.61674 102.207 12.3904 105.629 12.3904Z" fill="#D8D8D8"/>
<path d="M155.5 13.0096C158.921 13.0096 161.695 10.2359 161.695 6.81436C161.695 3.39283 158.921 0.619141 155.5 0.619141C152.078 0.619141 149.305 3.39283 149.305 6.81436C149.305 10.2359 152.078 13.0096 155.5 13.0096Z" fill="#D8D8D8"/>
<path d="M205.062 13.0096C208.484 13.0096 211.258 10.2359 211.258 6.81436C211.258 3.39283 208.484 0.619141 205.062 0.619141C201.641 0.619141 198.867 3.39283 198.867 6.81436C198.867 10.2359 201.641 13.0096 205.062 13.0096Z" fill="#D8D8D8"/>
<path d="M254.934 12.7003C258.355 12.7003 261.129 9.92656 261.129 6.50503C261.129 3.08351 258.355 0.309814 254.934 0.309814C251.512 0.309814 248.738 3.08351 248.738 6.50503C248.738 9.92656 251.512 12.7003 254.934 12.7003Z" fill="#D8D8D8"/>
<path d="M304.496 12.3904C307.918 12.3904 310.691 9.61674 310.691 6.19522C310.691 2.77369 307.918 0 304.496 0C301.074 0 298.301 2.77369 298.301 6.19522C298.301 9.61674 301.074 12.3904 304.496 12.3904Z" fill="#D8D8D8"/>
<path d="M6.19522 42.7471C9.61674 42.7471 12.3904 39.9734 12.3904 36.5519C12.3904 33.1304 9.61674 30.3567 6.19522 30.3567C2.77369 30.3567 0 33.1304 0 36.5519C0 39.9734 2.77369 42.7471 6.19522 42.7471Z" fill="#D8D8D8"/>
<path d="M56.0663 42.7469C59.4878 42.7469 62.2615 39.9732 62.2615 36.5517C62.2615 33.1301 59.4878 30.3564 56.0663 30.3564C52.6448 30.3564 49.8711 33.1301 49.8711 36.5517C49.8711 39.9732 52.6448 42.7469 56.0663 42.7469Z" fill="#D8D8D8"/>
<path d="M105.629 42.4373C109.05 42.4373 111.824 39.6636 111.824 36.2421C111.824 32.8206 109.05 30.0469 105.629 30.0469C102.207 30.0469 99.4336 32.8206 99.4336 36.2421C99.4336 39.6636 102.207 42.4373 105.629 42.4373Z" fill="#D8D8D8"/>
<path d="M155.5 43.0565C158.921 43.0565 161.695 40.2828 161.695 36.8612C161.695 33.4397 158.921 30.666 155.5 30.666C152.078 30.666 149.305 33.4397 149.305 36.8612C149.305 40.2828 152.078 43.0565 155.5 43.0565Z" fill="#D8D8D8"/>
<path d="M205.062 43.0565C208.484 43.0565 211.258 40.2828 211.258 36.8612C211.258 33.4397 208.484 30.666 205.062 30.666C201.641 30.666 198.867 33.4397 198.867 36.8612C198.867 40.2828 201.641 43.0565 205.062 43.0565Z" fill="#D8D8D8"/>
<path d="M254.934 42.7471C258.355 42.7471 261.129 39.9734 261.129 36.5519C261.129 33.1304 258.355 30.3567 254.934 30.3567C251.512 30.3567 248.738 33.1304 248.738 36.5519C248.738 39.9734 251.512 42.7471 254.934 42.7471Z" fill="#D8D8D8"/>
<path d="M304.496 42.4373C307.918 42.4373 310.691 39.6636 310.691 36.2421C310.691 32.8206 307.918 30.0469 304.496 30.0469C301.074 30.0469 298.301 32.8206 298.301 36.2421C298.301 39.6636 301.074 42.4373 304.496 42.4373Z" fill="#D8D8D8"/>
<path d="M6.50381 73.4129C9.92534 73.4129 12.699 70.6392 12.699 67.2177C12.699 63.7962 9.92534 61.0225 6.50381 61.0225C3.08229 61.0225 0.308594 63.7962 0.308594 67.2177C0.308594 70.6392 3.08229 73.4129 6.50381 73.4129Z" fill="#D8D8D8"/>
<path d="M56.3749 73.4129C59.7964 73.4129 62.5701 70.6392 62.5701 67.2177C62.5701 63.7962 59.7964 61.0225 56.3749 61.0225C52.9534 61.0225 50.1797 63.7962 50.1797 67.2177C50.1797 70.6392 52.9534 73.4129 56.3749 73.4129Z" fill="#D8D8D8"/>
<path d="M105.937 73.1033C109.359 73.1033 112.133 70.3296 112.133 66.9081C112.133 63.4866 109.359 60.7129 105.937 60.7129C102.516 60.7129 99.7422 63.4866 99.7422 66.9081C99.7422 70.3296 102.516 73.1033 105.937 73.1033Z" fill="#D8D8D8"/>
<path d="M155.809 73.7234C159.23 73.7234 162.004 70.9498 162.004 67.5282C162.004 64.1067 159.23 61.333 155.809 61.333C152.387 61.333 149.613 64.1067 149.613 67.5282C149.613 70.9498 152.387 73.7234 155.809 73.7234Z" fill="#D8D8D8"/>
<path d="M205.371 73.7234C208.793 73.7234 211.566 70.9498 211.566 67.5282C211.566 64.1067 208.793 61.333 205.371 61.333C201.949 61.333 199.176 64.1067 199.176 67.5282C199.176 70.9498 201.949 73.7234 205.371 73.7234Z" fill="#D8D8D8"/>
<path d="M255.242 73.4129C258.664 73.4129 261.437 70.6392 261.437 67.2177C261.437 63.7962 258.664 61.0225 255.242 61.0225C251.821 61.0225 249.047 63.7962 249.047 67.2177C249.047 70.6392 251.821 73.4129 255.242 73.4129Z" fill="#D8D8D8"/>
<path d="M304.805 73.1033C308.226 73.1033 311 70.3296 311 66.9081C311 63.4866 308.226 60.7129 304.805 60.7129C301.383 60.7129 298.609 63.4866 298.609 66.9081C298.609 70.3296 301.383 73.1033 304.805 73.1033Z" fill="#D8D8D8"/>
</svg>
