<svg width="165" height="106" viewBox="0 0 165 106" fill="none" xmlns="http://www.w3.org/2000/svg">
<path d="M3.27515 6.71437C5.08397 6.71437 6.55031 5.24803 6.55031 3.43922C6.55031 1.6304 5.08397 0.164062 3.27515 0.164062C1.46634 0.164062 0 1.6304 0 3.43922C0 5.24803 1.46634 6.71437 3.27515 6.71437Z" fill="#D8D8D8"/>
<path d="M29.6384 6.71437C31.4473 6.71437 32.9136 5.24803 32.9136 3.43922C32.9136 1.6304 31.4473 0.164062 29.6384 0.164062C27.8296 0.164062 26.3633 1.6304 26.3633 3.43922C26.3633 5.24803 27.8296 6.71437 29.6384 6.71437Z" fill="#D8D8D8"/>
<path d="M55.8416 6.55031C57.6504 6.55031 59.1167 5.08397 59.1167 3.27515C59.1167 1.46634 57.6504 0 55.8416 0C54.0327 0 52.5664 1.46634 52.5664 3.27515C52.5664 5.08397 54.0327 6.55031 55.8416 6.55031Z" fill="#D8D8D8"/>
<path d="M82.2048 6.87746C84.0137 6.87746 85.48 5.41112 85.48 3.6023C85.48 1.79348 84.0137 0.327148 82.2048 0.327148C80.396 0.327148 78.9297 1.79348 78.9297 3.6023C78.9297 5.41112 80.396 6.87746 82.2048 6.87746Z" fill="#D8D8D8"/>
<path d="M108.408 6.87746C110.217 6.87746 111.683 5.41112 111.683 3.6023C111.683 1.79348 110.217 0.327148 108.408 0.327148C106.599 0.327148 105.133 1.79348 105.133 3.6023C105.133 5.41112 106.599 6.87746 108.408 6.87746Z" fill="#D8D8D8"/>
<path d="M134.771 6.71437C136.58 6.71437 138.046 5.24803 138.046 3.43922C138.046 1.6304 136.58 0.164062 134.771 0.164062C132.962 0.164062 131.496 1.6304 131.496 3.43922C131.496 5.24803 132.962 6.71437 134.771 6.71437Z" fill="#D8D8D8"/>
<path d="M160.974 6.55031C162.783 6.55031 164.25 5.08397 164.25 3.27515C164.25 1.46634 162.783 0 160.974 0C159.166 0 157.699 1.46634 157.699 3.27515C157.699 5.08397 159.166 6.55031 160.974 6.55031Z" fill="#D8D8D8"/>
<path d="M3.27515 22.5982C5.08397 22.5982 6.55031 21.1318 6.55031 19.323C6.55031 17.5142 5.08397 16.0479 3.27515 16.0479C1.46634 16.0479 0 17.5142 0 19.323C0 21.1318 1.46634 22.5982 3.27515 22.5982Z" fill="#D8D8D8"/>
<path d="M29.6384 22.5982C31.4473 22.5982 32.9136 21.1318 32.9136 19.323C32.9136 17.5142 31.4473 16.0479 29.6384 16.0479C27.8296 16.0479 26.3633 17.5142 26.3633 19.323C26.3633 21.1318 27.8296 22.5982 29.6384 22.5982Z" fill="#D8D8D8"/>
<path d="M55.8416 22.4351C57.6504 22.4351 59.1167 20.9687 59.1167 19.1599C59.1167 17.3511 57.6504 15.8848 55.8416 15.8848C54.0327 15.8848 52.5664 17.3511 52.5664 19.1599C52.5664 20.9687 54.0327 22.4351 55.8416 22.4351Z" fill="#D8D8D8"/>
<path d="M82.2048 22.7622C84.0137 22.7622 85.48 21.2959 85.48 19.4871C85.48 17.6783 84.0137 16.2119 82.2048 16.2119C80.396 16.2119 78.9297 17.6783 78.9297 19.4871C78.9297 21.2959 80.396 22.7622 82.2048 22.7622Z" fill="#D8D8D8"/>
<path d="M108.408 22.7622C110.217 22.7622 111.683 21.2959 111.683 19.4871C111.683 17.6783 110.217 16.2119 108.408 16.2119C106.599 16.2119 105.133 17.6783 105.133 19.4871C105.133 21.2959 106.599 22.7622 108.408 22.7622Z" fill="#D8D8D8"/>
<path d="M134.771 22.5982C136.58 22.5982 138.046 21.1318 138.046 19.323C138.046 17.5142 136.58 16.0479 134.771 16.0479C132.962 16.0479 131.496 17.5142 131.496 19.323C131.496 21.1318 132.962 22.5982 134.771 22.5982Z" fill="#D8D8D8"/>
<path d="M160.974 22.4351C162.783 22.4351 164.25 20.9687 164.25 19.1599C164.25 17.3511 162.783 15.8848 160.974 15.8848C159.166 15.8848 157.699 17.3511 157.699 19.1599C157.699 20.9687 159.166 22.4351 160.974 22.4351Z" fill="#D8D8D8"/>
<path d="M3.43922 38.8101C5.24803 38.8101 6.71437 37.3437 6.71437 35.5349C6.71437 33.7261 5.24803 32.2598 3.43922 32.2598C1.6304 32.2598 0.164062 33.7261 0.164062 35.5349C0.164062 37.3437 1.6304 38.8101 3.43922 38.8101Z" fill="#D8D8D8"/>
<path d="M29.8025 38.8101C31.6113 38.8101 33.0777 37.3437 33.0777 35.5349C33.0777 33.7261 31.6113 32.2598 29.8025 32.2598C27.9937 32.2598 26.5273 33.7261 26.5273 35.5349C26.5273 37.3437 27.9937 38.8101 29.8025 38.8101Z" fill="#D8D8D8"/>
<path d="M56.0056 38.6467C57.8144 38.6467 59.2808 37.1804 59.2808 35.3716C59.2808 33.5628 57.8144 32.0964 56.0056 32.0964C54.1968 32.0964 52.7305 33.5628 52.7305 35.3716C52.7305 37.1804 54.1968 38.6467 56.0056 38.6467Z" fill="#D8D8D8"/>
<path d="M82.3689 38.9741C84.1777 38.9741 85.6441 37.5078 85.6441 35.699C85.6441 33.8902 84.1777 32.4238 82.3689 32.4238C80.5601 32.4238 79.0938 33.8902 79.0938 35.699C79.0938 37.5078 80.5601 38.9741 82.3689 38.9741Z" fill="#D8D8D8"/>
<path d="M108.572 38.9741C110.381 38.9741 111.847 37.5078 111.847 35.699C111.847 33.8902 110.381 32.4238 108.572 32.4238C106.763 32.4238 105.297 33.8902 105.297 35.699C105.297 37.5078 106.763 38.9741 108.572 38.9741Z" fill="#D8D8D8"/>
<path d="M134.935 38.8101C136.744 38.8101 138.21 37.3437 138.21 35.5349C138.21 33.7261 136.744 32.2598 134.935 32.2598C133.126 32.2598 131.66 33.7261 131.66 35.5349C131.66 37.3437 133.126 38.8101 134.935 38.8101Z" fill="#D8D8D8"/>
<path d="M161.138 38.647C162.947 38.647 164.414 37.1807 164.414 35.3718C164.414 33.563 162.947 32.0967 161.138 32.0967C159.33 32.0967 157.863 33.563 157.863 35.3718C157.863 37.1807 159.33 38.647 161.138 38.647Z" fill="#D8D8D8"/>
<path d="M3.60328 55.3501C5.4121 55.3501 6.87843 53.8838 6.87843 52.075C6.87843 50.2661 5.4121 48.7998 3.60328 48.7998C1.79446 48.7998 0.328125 50.2661 0.328125 52.075C0.328125 53.8838 1.79446 55.3501 3.60328 55.3501Z" fill="#D8D8D8"/>
<path d="M29.9666 55.3501C31.7754 55.3501 33.2417 53.8838 33.2417 52.075C33.2417 50.2661 31.7754 48.7998 29.9666 48.7998C28.1577 48.7998 26.6914 50.2661 26.6914 52.075C26.6914 53.8838 28.1577 55.3501 29.9666 55.3501Z" fill="#D8D8D8"/>
<path d="M56.1697 55.1861C57.9785 55.1861 59.4448 53.7197 59.4448 51.9109C59.4448 50.1021 57.9785 48.6357 56.1697 48.6357C54.3609 48.6357 52.8945 50.1021 52.8945 51.9109C52.8945 53.7197 54.3609 55.1861 56.1697 55.1861Z" fill="#D8D8D8"/>
<path d="M82.533 55.5142C84.3418 55.5142 85.8081 54.0478 85.8081 52.239C85.8081 50.4302 84.3418 48.9639 82.533 48.9639C80.7241 48.9639 79.2578 50.4302 79.2578 52.239C79.2578 54.0478 80.7241 55.5142 82.533 55.5142Z" fill="#D8D8D8"/>
<path d="M108.736 55.5142C110.545 55.5142 112.011 54.0478 112.011 52.239C112.011 50.4302 110.545 48.9639 108.736 48.9639C106.927 48.9639 105.461 50.4302 105.461 52.239C105.461 54.0478 106.927 55.5142 108.736 55.5142Z" fill="#D8D8D8"/>
<path d="M135.099 55.3501C136.908 55.3501 138.375 53.8838 138.375 52.075C138.375 50.2661 136.908 48.7998 135.099 48.7998C133.291 48.7998 131.824 50.2661 131.824 52.075C131.824 53.8838 133.291 55.3501 135.099 55.3501Z" fill="#D8D8D8"/>
<path d="M161.302 55.1861C163.111 55.1861 164.578 53.7197 164.578 51.9109C164.578 50.1021 163.111 48.6357 161.302 48.6357C159.494 48.6357 158.027 50.1021 158.027 51.9109C158.027 53.7197 159.494 55.1861 161.302 55.1861Z" fill="#D8D8D8"/>
<path d="M3.27515 72.2171C5.08397 72.2171 6.55031 70.7507 6.55031 68.9419C6.55031 67.1331 5.08397 65.6667 3.27515 65.6667C1.46634 65.6667 0 67.1331 0 68.9419C0 70.7507 1.46634 72.2171 3.27515 72.2171Z" fill="#D8D8D8"/>
<path d="M29.6384 72.2173C31.4473 72.2173 32.9136 70.751 32.9136 68.9421C32.9136 67.1333 31.4473 65.667 29.6384 65.667C27.8296 65.667 26.3633 67.1333 26.3633 68.9421C26.3633 70.751 27.8296 72.2173 29.6384 72.2173Z" fill="#D8D8D8"/>
<path d="M55.8416 72.0535C57.6504 72.0535 59.1167 70.5871 59.1167 68.7783C59.1167 66.9695 57.6504 65.5032 55.8416 65.5032C54.0327 65.5032 52.5664 66.9695 52.5664 68.7783C52.5664 70.5871 54.0327 72.0535 55.8416 72.0535Z" fill="#D8D8D8"/>
<path d="M82.2048 72.3804C84.0137 72.3804 85.48 70.9141 85.48 69.1052C85.48 67.2964 84.0137 65.8301 82.2048 65.8301C80.396 65.8301 78.9297 67.2964 78.9297 69.1052C78.9297 70.9141 80.396 72.3804 82.2048 72.3804Z" fill="#D8D8D8"/>
<path d="M108.408 72.3804C110.217 72.3804 111.683 70.9141 111.683 69.1052C111.683 67.2964 110.217 65.8301 108.408 65.8301C106.599 65.8301 105.133 67.2964 105.133 69.1052C105.133 70.9141 106.599 72.3804 108.408 72.3804Z" fill="#D8D8D8"/>
<path d="M134.771 72.2173C136.58 72.2173 138.046 70.751 138.046 68.9421C138.046 67.1333 136.58 65.667 134.771 65.667C132.962 65.667 131.496 67.1333 131.496 68.9421C131.496 70.751 132.962 72.2173 134.771 72.2173Z" fill="#D8D8D8"/>
<path d="M160.974 72.0532C162.783 72.0532 164.25 70.5869 164.25 68.7781C164.25 66.9693 162.783 65.5029 160.974 65.5029C159.166 65.5029 157.699 66.9693 157.699 68.7781C157.699 70.5869 159.166 72.0532 160.974 72.0532Z" fill="#D8D8D8"/>
<path d="M3.27515 88.7564C5.08397 88.7564 6.55031 87.29 6.55031 85.4812C6.55031 83.6724 5.08397 82.2061 3.27515 82.2061C1.46634 82.2061 0 83.6724 0 85.4812C0 87.29 1.46634 88.7564 3.27515 88.7564Z" fill="#D8D8D8"/>
<path d="M29.6384 88.7564C31.4473 88.7564 32.9136 87.29 32.9136 85.4812C32.9136 83.6724 31.4473 82.2061 29.6384 82.2061C27.8296 82.2061 26.3633 83.6724 26.3633 85.4812C26.3633 87.29 27.8296 88.7564 29.6384 88.7564Z" fill="#D8D8D8"/>
<path d="M55.8416 88.5933C57.6504 88.5933 59.1167 87.1269 59.1167 85.3181C59.1167 83.5093 57.6504 82.043 55.8416 82.043C54.0327 82.043 52.5664 83.5093 52.5664 85.3181C52.5664 87.1269 54.0327 88.5933 55.8416 88.5933Z" fill="#D8D8D8"/>
<path d="M82.2048 88.9204C84.0137 88.9204 85.48 87.4541 85.48 85.6453C85.48 83.8365 84.0137 82.3701 82.2048 82.3701C80.396 82.3701 78.9297 83.8365 78.9297 85.6453C78.9297 87.4541 80.396 88.9204 82.2048 88.9204Z" fill="#D8D8D8"/>
<path d="M108.408 88.9204C110.217 88.9204 111.683 87.4541 111.683 85.6453C111.683 83.8365 110.217 82.3701 108.408 82.3701C106.599 82.3701 105.133 83.8365 105.133 85.6453C105.133 87.4541 106.599 88.9204 108.408 88.9204Z" fill="#D8D8D8"/>
<path d="M134.771 88.7564C136.58 88.7564 138.046 87.29 138.046 85.4812C138.046 83.6724 136.58 82.2061 134.771 82.2061C132.962 82.2061 131.496 83.6724 131.496 85.4812C131.496 87.29 132.962 88.7564 134.771 88.7564Z" fill="#D8D8D8"/>
<path d="M160.974 88.5933C162.783 88.5933 164.25 87.1269 164.25 85.3181C164.25 83.5093 162.783 82.043 160.974 82.043C159.166 82.043 157.699 83.5093 157.699 85.3181C157.699 87.1269 159.166 88.5933 160.974 88.5933Z" fill="#D8D8D8"/>
<path d="M3.27515 105.296C5.08397 105.296 6.55031 103.83 6.55031 102.021C6.55031 100.212 5.08397 98.7458 3.27515 98.7458C1.46634 98.7458 0 100.212 0 102.021C0 103.83 1.46634 105.296 3.27515 105.296Z" fill="#D8D8D8"/>
<path d="M29.6384 105.296C31.4473 105.296 32.9136 103.83 32.9136 102.021C32.9136 100.212 31.4473 98.7461 29.6384 98.7461C27.8296 98.7461 26.3633 100.212 26.3633 102.021C26.3633 103.83 27.8296 105.296 29.6384 105.296Z" fill="#D8D8D8"/>
<path d="M55.8416 105.133C57.6504 105.133 59.1167 103.666 59.1167 101.857C59.1167 100.049 57.6504 98.5823 55.8416 98.5823C54.0327 98.5823 52.5664 100.049 52.5664 101.857C52.5664 103.666 54.0327 105.133 55.8416 105.133Z" fill="#D8D8D8"/>
<path d="M82.2048 105.46C84.0137 105.46 85.48 103.994 85.48 102.185C85.48 100.376 84.0137 98.9102 82.2048 98.9102C80.396 98.9102 78.9297 100.376 78.9297 102.185C78.9297 103.994 80.396 105.46 82.2048 105.46Z" fill="#D8D8D8"/>
<path d="M108.408 105.46C110.217 105.46 111.683 103.994 111.683 102.185C111.683 100.376 110.217 98.9102 108.408 98.9102C106.599 98.9102 105.133 100.376 105.133 102.185C105.133 103.994 106.599 105.46 108.408 105.46Z" fill="#D8D8D8"/>
<path d="M134.771 105.296C136.58 105.296 138.046 103.83 138.046 102.021C138.046 100.212 136.58 98.7461 134.771 98.7461C132.962 98.7461 131.496 100.212 131.496 102.021C131.496 103.83 132.962 105.296 134.771 105.296Z" fill="#D8D8D8"/>
<path d="M160.974 105.132C162.783 105.132 164.25 103.666 164.25 101.857C164.25 100.048 162.783 98.582 160.974 98.582C159.166 98.582 157.699 100.048 157.699 101.857C157.699 103.666 159.166 105.132 160.974 105.132Z" fill="#D8D8D8"/>
</svg>
