<svg width="57" height="57" viewBox="0 0 57 57" fill="none" xmlns="http://www.w3.org/2000/svg">
<path d="M40.0533 45.554H16.9473C13.9143 45.554 11.4473 43.086 11.4473 40.054V16.949C11.4473 13.917 13.9143 11.449 16.9473 11.449H40.0533C43.0863 11.449 45.5533 13.917 45.5533 16.949V40.054C45.5533 43.086 43.0863 45.554 40.0533 45.554ZM16.9473 14.449C15.5693 14.449 14.4473 15.57 14.4473 16.949V40.054C14.4473 41.433 15.5693 42.554 16.9473 42.554H40.0533C41.4313 42.554 42.5533 41.433 42.5533 40.054V16.949C42.5533 15.57 41.4313 14.449 40.0533 14.449H16.9473Z" fill="#CD6028"/>
<path d="M34.3574 29.8058H39.0478C36.6456 35.1039 31.2431 38.9018 29.2682 39.3955C29.1543 39.424 29.0309 39.443 28.9169 39.443C28.765 39.443 28.6131 39.4145 28.4707 39.367C28.3947 39.3385 21.701 36.2148 18.8525 30.1381H23.7043C24.1411 30.1381 24.5589 29.9388 24.8342 29.5874L26.3534 27.6125L29.1258 32.1985C29.3442 32.5593 29.7145 32.8062 30.1323 32.8726C30.1987 32.8821 30.2747 32.8821 30.3411 32.8821C30.6925 32.8821 31.0248 32.7587 31.2906 32.5308L34.3574 29.8058Z" fill="#3E6EB4"/>
<path d="M40.1208 26.1883C40.0828 26.4447 40.0448 26.701 39.9879 26.9574H33.8163C33.465 26.9574 33.1327 27.0903 32.8668 27.3182L30.683 29.2646L27.7207 24.3653C27.4833 23.957 27.0561 23.7007 26.5908 23.6722C26.1161 23.6437 25.6603 23.8526 25.3755 24.2229L23.0018 27.2897H17.8842C17.8082 26.9289 17.7417 26.5491 17.6943 26.1693C17.2005 22.229 19.3843 18.9248 23.0208 18.1463C25.6508 17.5861 27.6542 18.7255 28.9075 20.0262C30.1608 18.7255 32.1642 17.5861 34.7943 18.1463C38.4782 18.9343 40.6715 22.2385 40.1208 26.1883Z" fill="#3E6EB4"/>
<path d="M28.5059 14.4479C27.6769 14.4479 27.0059 13.7759 27.0059 12.9479V7.20288C27.0059 6.37488 27.6769 5.70288 28.5059 5.70288C29.3349 5.70288 30.0059 6.37488 30.0059 7.20288V12.9479C30.0059 13.7759 29.3349 14.4479 28.5059 14.4479Z" fill="#CD6028"/>
<path d="M28.5063 8.703C26.1073 8.703 24.1553 6.751 24.1553 4.351C24.1553 1.951 26.1073 0 28.5063 0C30.9053 0 32.8573 1.952 32.8573 4.351C32.8573 6.75 30.9053 8.703 28.5063 8.703ZM28.5063 3.001C27.7613 3.001 27.1553 3.606 27.1553 4.352C27.1553 5.098 27.7613 5.704 28.5063 5.704C29.2513 5.704 29.8573 5.098 29.8573 4.352C29.8573 3.606 29.2513 3.001 28.5063 3.001Z" fill="#CD6028"/>
<path d="M12.9471 29.9951H7.20215C6.37315 29.9951 5.70215 29.3231 5.70215 28.4951C5.70215 27.6671 6.37315 26.9951 7.20215 26.9951H12.9471C13.7761 26.9951 14.4471 27.6671 14.4471 28.4951C14.4471 29.3231 13.7761 29.9951 12.9471 29.9951Z" fill="#CD6028"/>
<path d="M4.351 32.8461C1.952 32.8461 0 30.8941 0 28.4951C0 26.0961 1.952 24.1431 4.351 24.1431C6.75 24.1431 8.702 26.0951 8.702 28.4951C8.702 30.8951 6.75 32.8461 4.351 32.8461ZM4.351 27.1441C3.606 27.1441 3 27.7501 3 28.4961C3 29.2421 3.606 29.8471 4.351 29.8471C5.096 29.8471 5.702 29.2421 5.702 28.4961C5.702 27.7501 5.096 27.1441 4.351 27.1441Z" fill="#CD6028"/>
<path d="M49.7977 30.0071H44.0527C43.2237 30.0071 42.5527 29.3351 42.5527 28.5071C42.5527 27.6791 43.2237 27.0071 44.0527 27.0071H49.7977C50.6267 27.0071 51.2977 27.6791 51.2977 28.5071C51.2977 29.3351 50.6267 30.0071 49.7977 30.0071Z" fill="#CD6028"/>
<path d="M52.6488 32.858C50.2498 32.858 48.2979 30.906 48.2979 28.506C48.2979 26.106 50.2498 24.155 52.6488 24.155C55.0478 24.155 56.9999 26.107 56.9999 28.506C56.9999 30.905 55.0478 32.858 52.6488 32.858ZM52.6488 27.156C51.9038 27.156 51.2979 27.761 51.2979 28.507C51.2979 29.253 51.9038 29.859 52.6488 29.859C53.3938 29.859 53.9999 29.253 53.9999 28.507C53.9999 27.761 53.3938 27.156 52.6488 27.156Z" fill="#CD6028"/>
<path d="M28.4932 51.299C27.6642 51.299 26.9932 50.627 26.9932 49.799V44.054C26.9932 43.226 27.6642 42.554 28.4932 42.554C29.3222 42.554 29.9932 43.226 29.9932 44.054V49.799C29.9932 50.627 29.3222 51.299 28.4932 51.299Z" fill="#CD6028"/>
<path d="M28.4936 57.0009C26.0946 57.0009 24.1426 55.0488 24.1426 52.6498C24.1426 50.2508 26.0946 48.2979 28.4936 48.2979C30.8926 48.2979 32.8446 50.2498 32.8446 52.6498C32.8446 55.0498 30.8926 57.0009 28.4936 57.0009ZM28.4936 51.2989C27.7486 51.2989 27.1426 51.9049 27.1426 52.6509C27.1426 53.3969 27.7486 54.0019 28.4936 54.0019C29.2386 54.0019 29.8446 53.3969 29.8446 52.6509C29.8446 51.9049 29.2386 51.2989 28.4936 51.2989Z" fill="#CD6028"/>
<path d="M37.5898 14.451C36.7608 14.451 36.0898 13.779 36.0898 12.951V4.50098C36.0898 3.67298 36.7608 3.00098 37.5898 3.00098H41.7658C42.5948 3.00098 43.2658 3.67298 43.2658 4.50098C43.2658 5.32898 42.5948 6.00098 41.7658 6.00098H39.0898V12.951C39.0898 13.779 38.4188 14.451 37.5898 14.451Z" fill="#CD6028"/>
<path d="M52.4998 20.9109H44.0498C43.2208 20.9109 42.5498 20.2389 42.5498 19.4109C42.5498 18.5829 43.2208 17.9109 44.0498 17.9109H50.9998V15.2419C50.9998 14.4139 51.6708 13.7419 52.4998 13.7419C53.3288 13.7419 53.9998 14.4139 53.9998 15.2419V19.4109C53.9998 20.2389 53.3288 20.9109 52.4998 20.9109Z" fill="#CD6028"/>
<path d="M52.4998 43.2671C51.6708 43.2671 50.9998 42.5951 50.9998 41.7671V39.0911H44.0498C43.2208 39.0911 42.5498 38.4191 42.5498 37.5911C42.5498 36.7631 43.2208 36.0911 44.0498 36.0911H52.4998C53.3288 36.0911 53.9998 36.7631 53.9998 37.5911V41.7671C53.9998 42.5951 53.3288 43.2671 52.4998 43.2671Z" fill="#CD6028"/>
<path d="M41.7578 54.001H37.5898C36.7608 54.001 36.0898 53.329 36.0898 52.501V44.051C36.0898 43.223 36.7608 42.551 37.5898 42.551C38.4188 42.551 39.0898 43.223 39.0898 44.051V51.001H41.7578C42.5868 51.001 43.2578 51.673 43.2578 52.501C43.2578 53.329 42.5868 54.001 41.7578 54.001Z" fill="#CD6028"/>
<path d="M19.4104 54.001H15.2344C14.4054 54.001 13.7344 53.329 13.7344 52.501C13.7344 51.673 14.4054 51.001 15.2344 51.001H17.9104V44.051C17.9104 43.223 18.5814 42.551 19.4104 42.551C20.2394 42.551 20.9104 43.223 20.9104 44.051V52.501C20.9104 53.329 20.2394 54.001 19.4104 54.001Z" fill="#CD6028"/>
<path d="M4.5 43.2601C3.671 43.2601 3 42.5881 3 41.7601V37.5911C3 36.7631 3.671 36.0911 4.5 36.0911H12.95C13.779 36.0911 14.45 36.7631 14.45 37.5911C14.45 38.4191 13.779 39.0911 12.95 39.0911H6V41.7601C6 42.5881 5.329 43.2601 4.5 43.2601Z" fill="#CD6028"/>
<path d="M12.95 20.9109H4.5C3.671 20.9109 3 20.2389 3 19.4109V15.2349C3 14.4069 3.671 13.7349 4.5 13.7349C5.329 13.7349 6 14.4069 6 15.2349V17.9109H12.95C13.779 17.9109 14.45 18.5829 14.45 19.4109C14.45 20.2389 13.779 20.9109 12.95 20.9109Z" fill="#CD6028"/>
<path d="M19.4102 14.451C18.5812 14.451 17.9102 13.779 17.9102 12.951V6.00098H15.2422C14.4132 6.00098 13.7422 5.32898 13.7422 4.50098C13.7422 3.67298 14.4132 3.00098 15.2422 3.00098H19.4102C20.2392 3.00098 20.9102 3.67298 20.9102 4.50098V12.951C20.9102 13.779 20.2392 14.451 19.4102 14.451Z" fill="#CD6028"/>
</svg>
