<svg width="57" height="57" viewBox="0 0 57 57" fill="none" xmlns="http://www.w3.org/2000/svg">
<path d="M40.0533 45.554H16.9473C13.9143 45.554 11.4473 43.086 11.4473 40.054V16.949C11.4473 13.917 13.9143 11.449 16.9473 11.449H40.0533C43.0863 11.449 45.5533 13.917 45.5533 16.949V40.054C45.5533 43.086 43.0863 45.554 40.0533 45.554ZM16.9473 14.449C15.5693 14.449 14.4473 15.57 14.4473 16.949V40.054C14.4473 41.433 15.5693 42.554 16.9473 42.554H40.0533C41.4313 42.554 42.5533 41.433 42.5533 40.054V16.949C42.5533 15.57 41.4313 14.449 40.0533 14.449H16.9473Z" fill="#CD6028"/>
<path d="M28.5059 14.4479C27.6769 14.4479 27.0059 13.7759 27.0059 12.9479V7.20288C27.0059 6.37488 27.6769 5.70288 28.5059 5.70288C29.3349 5.70288 30.0059 6.37488 30.0059 7.20288V12.9479C30.0059 13.7759 29.3349 14.4479 28.5059 14.4479Z" fill="#CD6028"/>
<path d="M28.5063 8.703C26.1073 8.703 24.1553 6.751 24.1553 4.351C24.1553 1.951 26.1073 0 28.5063 0C30.9053 0 32.8573 1.952 32.8573 4.351C32.8573 6.75 30.9053 8.703 28.5063 8.703ZM28.5063 3.001C27.7613 3.001 27.1553 3.606 27.1553 4.352C27.1553 5.098 27.7613 5.704 28.5063 5.704C29.2513 5.704 29.8573 5.098 29.8573 4.352C29.8573 3.606 29.2513 3.001 28.5063 3.001Z" fill="#CD6028"/>
<path d="M12.9471 29.9951H7.20215C6.37315 29.9951 5.70215 29.3231 5.70215 28.4951C5.70215 27.6671 6.37315 26.9951 7.20215 26.9951H12.9471C13.7761 26.9951 14.4471 27.6671 14.4471 28.4951C14.4471 29.3231 13.7761 29.9951 12.9471 29.9951Z" fill="#CD6028"/>
<path d="M4.351 32.8461C1.952 32.8461 0 30.8941 0 28.4951C0 26.0961 1.952 24.1431 4.351 24.1431C6.75 24.1431 8.702 26.0951 8.702 28.4951C8.702 30.8951 6.75 32.8461 4.351 32.8461ZM4.351 27.1441C3.606 27.1441 3 27.7501 3 28.4961C3 29.2421 3.606 29.8471 4.351 29.8471C5.096 29.8471 5.702 29.2421 5.702 28.4961C5.702 27.7501 5.096 27.1441 4.351 27.1441Z" fill="#CD6028"/>
<path d="M49.7977 30.0071H44.0527C43.2237 30.0071 42.5527 29.3351 42.5527 28.5071C42.5527 27.6791 43.2237 27.0071 44.0527 27.0071H49.7977C50.6267 27.0071 51.2977 27.6791 51.2977 28.5071C51.2977 29.3351 50.6267 30.0071 49.7977 30.0071Z" fill="#CD6028"/>
<path d="M52.6488 32.858C50.2498 32.858 48.2979 30.906 48.2979 28.506C48.2979 26.106 50.2498 24.155 52.6488 24.155C55.0478 24.155 56.9999 26.107 56.9999 28.506C56.9999 30.905 55.0478 32.858 52.6488 32.858ZM52.6488 27.156C51.9038 27.156 51.2979 27.761 51.2979 28.507C51.2979 29.253 51.9038 29.859 52.6488 29.859C53.3938 29.859 53.9999 29.253 53.9999 28.507C53.9999 27.761 53.3938 27.156 52.6488 27.156Z" fill="#CD6028"/>
<path d="M28.4932 51.299C27.6642 51.299 26.9932 50.627 26.9932 49.799V44.054C26.9932 43.226 27.6642 42.554 28.4932 42.554C29.3222 42.554 29.9932 43.226 29.9932 44.054V49.799C29.9932 50.627 29.3222 51.299 28.4932 51.299Z" fill="#CD6028"/>
<path d="M28.4936 57.0009C26.0946 57.0009 24.1426 55.0488 24.1426 52.6498C24.1426 50.2508 26.0946 48.2979 28.4936 48.2979C30.8926 48.2979 32.8446 50.2498 32.8446 52.6498C32.8446 55.0498 30.8926 57.0009 28.4936 57.0009ZM28.4936 51.2989C27.7486 51.2989 27.1426 51.9049 27.1426 52.6509C27.1426 53.3969 27.7486 54.0019 28.4936 54.0019C29.2386 54.0019 29.8446 53.3969 29.8446 52.6509C29.8446 51.9049 29.2386 51.2989 28.4936 51.2989Z" fill="#CD6028"/>
<path d="M37.5898 14.451C36.7608 14.451 36.0898 13.779 36.0898 12.951V4.50098C36.0898 3.67298 36.7608 3.00098 37.5898 3.00098H41.7658C42.5948 3.00098 43.2658 3.67298 43.2658 4.50098C43.2658 5.32898 42.5948 6.00098 41.7658 6.00098H39.0898V12.951C39.0898 13.779 38.4188 14.451 37.5898 14.451Z" fill="#CD6028"/>
<path d="M52.4998 20.9109H44.0498C43.2208 20.9109 42.5498 20.2389 42.5498 19.4109C42.5498 18.5829 43.2208 17.9109 44.0498 17.9109H50.9998V15.2419C50.9998 14.4139 51.6708 13.7419 52.4998 13.7419C53.3288 13.7419 53.9998 14.4139 53.9998 15.2419V19.4109C53.9998 20.2389 53.3288 20.9109 52.4998 20.9109Z" fill="#CD6028"/>
<path d="M52.4998 43.2671C51.6708 43.2671 50.9998 42.5951 50.9998 41.7671V39.0911H44.0498C43.2208 39.0911 42.5498 38.4191 42.5498 37.5911C42.5498 36.7631 43.2208 36.0911 44.0498 36.0911H52.4998C53.3288 36.0911 53.9998 36.7631 53.9998 37.5911V41.7671C53.9998 42.5951 53.3288 43.2671 52.4998 43.2671Z" fill="#CD6028"/>
<path d="M41.7578 54.001H37.5898C36.7608 54.001 36.0898 53.329 36.0898 52.501V44.051C36.0898 43.223 36.7608 42.551 37.5898 42.551C38.4188 42.551 39.0898 43.223 39.0898 44.051V51.001H41.7578C42.5868 51.001 43.2578 51.673 43.2578 52.501C43.2578 53.329 42.5868 54.001 41.7578 54.001Z" fill="#CD6028"/>
<path d="M19.4104 54.001H15.2344C14.4054 54.001 13.7344 53.329 13.7344 52.501C13.7344 51.673 14.4054 51.001 15.2344 51.001H17.9104V44.051C17.9104 43.223 18.5814 42.551 19.4104 42.551C20.2394 42.551 20.9104 43.223 20.9104 44.051V52.501C20.9104 53.329 20.2394 54.001 19.4104 54.001Z" fill="#CD6028"/>
<path d="M4.5 43.2601C3.671 43.2601 3 42.5881 3 41.7601V37.5911C3 36.7631 3.671 36.0911 4.5 36.0911H12.95C13.779 36.0911 14.45 36.7631 14.45 37.5911C14.45 38.4191 13.779 39.0911 12.95 39.0911H6V41.7601C6 42.5881 5.329 43.2601 4.5 43.2601Z" fill="#CD6028"/>
<path d="M12.95 20.9109H4.5C3.671 20.9109 3 20.2389 3 19.4109V15.2349C3 14.4069 3.671 13.7349 4.5 13.7349C5.329 13.7349 6 14.4069 6 15.2349V17.9109H12.95C13.779 17.9109 14.45 18.5829 14.45 19.4109C14.45 20.2389 13.779 20.9109 12.95 20.9109Z" fill="#CD6028"/>
<path d="M19.4102 14.451C18.5812 14.451 17.9102 13.779 17.9102 12.951V6.00098H15.2422C14.4132 6.00098 13.7422 5.32898 13.7422 4.50098C13.7422 3.67298 14.4132 3.00098 15.2422 3.00098H19.4102C20.2392 3.00098 20.9102 3.67298 20.9102 4.50098V12.951C20.9102 13.779 20.2392 14.451 19.4102 14.451Z" fill="#CD6028"/>
<path fill-rule="evenodd" clip-rule="evenodd" d="M29.9894 36.3996V37.2806C29.9894 38.0755 29.3449 38.72 28.55 38.72C27.7551 38.72 27.1107 38.0755 27.1107 37.2806V36.4575C25.8633 36.2533 24.721 35.5489 23.9799 34.5241C23.5143 33.8813 23.6577 32.9827 24.3003 32.5169C24.9432 32.0513 25.8417 32.1947 26.3075 32.8374C26.679 33.351 27.2326 33.6402 27.8676 33.6402H28.9253C29.9786 33.6402 30.8458 32.7731 30.8458 31.7197C30.8458 30.6663 29.9787 29.7993 28.9253 29.7993H28.1742C25.5317 29.7993 23.375 27.6426 23.375 25.0001C23.375 22.763 24.9372 20.8159 27.1105 20.3204V19.4394C27.1105 18.6445 27.7549 18 28.5498 18C29.3447 18 29.9892 18.6445 29.9892 19.4394V20.2625C31.2364 20.4665 32.3789 21.1711 33.1198 22.1957C33.5854 22.8386 33.442 23.7373 32.7993 24.2029C32.1565 24.6687 31.2578 24.5251 30.7922 23.8824C30.4206 23.3688 29.867 23.0797 29.2321 23.0797H28.1743C27.1211 23.0797 26.2539 23.9469 26.2539 25.0001C26.2539 26.0533 27.1209 26.9206 28.1743 26.9206H28.9255C31.568 26.9206 33.7247 29.0772 33.7247 31.7197C33.7247 33.957 32.1626 35.9041 29.9894 36.3996Z" fill="#3E6EB4"/>
</svg>
