<svg width="53" height="50" viewBox="0 0 53 50" fill="none" xmlns="http://www.w3.org/2000/svg">
<g opacity="0.58">
<mask id="mask0_0_1181" style="mask-type:luminance" maskUnits="userSpaceOnUse" x="0" y="4" width="46" height="46">
<path d="M45.8943 4.10571H0V50H45.8943V4.10571Z" fill="white"/>
</mask>
<g mask="url(#mask0_0_1181)">
<mask id="mask1_0_1181" style="mask-type:luminance" maskUnits="userSpaceOnUse" x="0" y="4" width="46" height="46">
<path d="M45.8943 4.10571H0V50H45.8943V4.10571Z" fill="white"/>
</mask>
<g mask="url(#mask1_0_1181)">
<path d="M45.8138 25.1729C46.8516 37.8019 37.455 48.8828 24.826 49.9205C12.197 50.9583 1.11609 41.5617 0.0783189 28.9327C-0.959449 16.3036 8.43717 5.22278 21.0662 4.18501C33.6952 3.14724 44.7761 12.5439 45.8138 25.1729Z" fill="#B7C5E5"/>
</g>
</g>
</g>
<g opacity="0.31">
<mask id="mask2_0_1181" style="mask-type:luminance" maskUnits="userSpaceOnUse" x="35" y="6" width="18" height="18">
<path d="M52.3197 6.64624H35.2617V23.7042H52.3197V6.64624Z" fill="white"/>
</mask>
<g mask="url(#mask2_0_1181)">
<mask id="mask3_0_1181" style="mask-type:luminance" maskUnits="userSpaceOnUse" x="35" y="6" width="18" height="18">
<path d="M52.3197 6.64624H35.2617V23.7042H52.3197V6.64624Z" fill="white"/>
</mask>
<g mask="url(#mask3_0_1181)">
<path d="M52.2842 14.4777C52.6699 19.1732 49.1766 23.2902 44.4811 23.6758C39.7857 24.0615 35.6686 20.5682 35.283 15.8727C34.8974 11.1773 38.3906 7.06022 43.0861 6.6746C47.7816 6.28898 51.8986 9.78223 52.2842 14.4777Z" fill="#EE6727"/>
</g>
</g>
</g>
<g opacity="0.58">
<mask id="mask4_0_1181" style="mask-type:luminance" maskUnits="userSpaceOnUse" x="35" y="0" width="7" height="6">
<path d="M41.1753 0H35.7539V5.42135H41.1753V0Z" fill="white"/>
</mask>
<g mask="url(#mask4_0_1181)">
<mask id="mask5_0_1181" style="mask-type:luminance" maskUnits="userSpaceOnUse" x="35" y="0" width="7" height="6">
<path d="M41.1753 0H35.7539V5.42135H41.1753V0Z" fill="white"/>
</mask>
<g mask="url(#mask5_0_1181)">
<path d="M41.1641 2.48943C41.2888 3.98087 40.1773 5.29084 38.6859 5.4156C37.1945 5.53469 35.8845 4.42887 35.7654 2.93176C35.6407 1.44032 36.7521 0.130353 38.2436 0.0112648C39.735 -0.113494 41.045 0.997995 41.1641 2.48943Z" fill="#719AD0"/>
</g>
</g>
</g>
<path d="M24.6527 22.3943C24.3068 20.9596 23.4221 19.7404 22.1632 18.9691C20.8986 18.1979 19.4185 17.9597 17.9781 18.3056C16.5433 18.6516 15.3241 19.5305 14.5529 20.7951C13.7816 22.0597 13.5435 23.5455 13.8894 24.9802C14.2353 26.415 15.12 27.6342 16.3846 28.4111C17.3996 29.0349 18.5622 29.3071 19.7247 29.2107C20.0082 29.1824 20.2861 29.1427 20.5697 29.0746C22.0044 28.7287 23.2236 27.8497 23.9949 26.5851C24.7661 25.3205 25.0043 23.8347 24.6583 22.4M17.1218 27.1862C16.1861 26.6135 15.5283 25.7118 15.2731 24.6457C15.0179 23.5852 15.1937 22.4794 15.7721 21.5437C16.3449 20.608 17.2465 19.9502 18.3127 19.695C18.5225 19.644 18.7323 19.6099 18.9421 19.5929C19.8041 19.5192 20.6661 19.7234 21.4203 20.1884C22.356 20.7611 23.0138 21.6628 23.269 22.7289C23.5242 23.7894 23.3484 24.8952 22.7756 25.8309C22.2029 26.7666 21.2955 27.4244 20.2351 27.6796C19.169 27.9348 18.0688 27.759 17.1331 27.1862" fill="#403644"/>
<path d="M22.7775 2.10965C22.3635 2.2174 22.0233 2.47826 21.8078 2.84686C21.5923 3.21547 21.5299 3.64079 21.6377 4.05476C21.7454 4.46306 22.0119 4.80898 22.3749 5.02448C22.7435 5.23997 23.1745 5.30235 23.5828 5.1946C23.9967 5.08686 24.337 4.82032 24.5525 4.45739C24.768 4.08878 24.8304 3.6578 24.7226 3.2495C24.5015 2.39887 23.6281 1.88282 22.7775 2.10965Z" fill="white"/>
<path d="M46.8163 29.8855H46.7993C46.425 29.9138 46.1075 30.118 45.926 30.4356C45.7389 30.7588 45.7218 31.1387 45.8863 31.4847C46.0734 31.876 46.5101 32.1312 46.9467 32.1028C47.3437 32.0858 47.6499 31.876 47.8427 31.5527C48.0299 31.2295 48.0469 30.8495 47.8824 30.5036C47.6953 30.1067 47.2586 29.8571 46.822 29.8855" fill="white"/>
<path d="M50.6296 13.9446C50.4254 13.111 49.9151 12.4021 49.1835 11.9541C48.452 11.5061 47.59 11.37 46.7507 11.5685C45.0268 11.9825 43.9607 13.7178 44.3746 15.4417C44.5051 15.9748 44.7603 16.4568 45.1232 16.8537L38.1707 27.3108C37.4165 27.0556 36.5829 26.9989 35.7549 27.2031C34.6151 27.4753 33.6397 28.1841 33.0272 29.1879C33.0045 29.2219 32.9875 29.2616 32.9705 29.2956L20.1657 22.9953L23.279 5.85794C23.3074 5.85794 23.3357 5.85794 23.3698 5.85794C23.4945 5.8466 23.6249 5.82959 23.7497 5.79556C24.3225 5.64812 24.7988 5.28518 25.0994 4.77481C25.3999 4.26443 25.4793 3.66899 25.3319 3.1019C25.0256 1.92803 23.8177 1.21917 22.6382 1.5254C22.0711 1.67284 21.5891 2.03578 21.2942 2.54616C20.9937 3.05086 20.9143 3.6463 21.0617 4.21906C21.2092 4.79182 21.5721 5.26817 22.0825 5.56306C22.2072 5.64245 22.3433 5.69349 22.4794 5.74452L19.2811 23.3526L18.6516 22.9046L7.11139 39.2593C6.47625 39.0552 5.79575 39.0211 5.12659 39.1799C4.16821 39.4068 3.36295 39.9965 2.84123 40.8358C2.32518 41.6751 2.17207 42.6675 2.3989 43.6202C2.62573 44.5786 3.2155 45.3895 4.05479 45.9056C4.72962 46.3195 5.50086 46.501 6.27777 46.4386C6.46491 46.4216 6.65205 46.3933 6.83919 46.3479C7.79756 46.1211 8.6085 45.5256 9.12454 44.6863C9.64059 43.8471 9.79371 42.8547 9.56687 41.9019C9.39675 41.1988 9.03381 40.575 8.51776 40.0873L19.2867 24.8213L25.0767 38.4314C24.64 38.8283 24.4245 39.4408 24.5833 40.0532C24.7875 40.8245 25.519 41.3292 26.2902 41.2611C26.381 41.2555 26.4774 41.2385 26.5681 41.2158C26.9878 41.108 27.3394 40.8415 27.5605 40.4615C27.7817 40.0873 27.8441 39.6506 27.7306 39.2253C27.6229 38.8057 27.3564 38.4541 26.9821 38.2386C26.6248 38.0287 26.2109 37.9664 25.8082 38.0571L20.058 24.5434L32.4658 30.6453C32.3411 31.2634 32.3467 31.8985 32.4998 32.528C32.772 33.6735 33.4809 34.6432 34.4846 35.2614C35.2899 35.7604 36.2143 35.9759 37.1443 35.9022C37.3711 35.8795 37.5979 35.8455 37.8191 35.7944C39.7075 35.3408 41.0232 33.7246 41.1876 31.8872L45.2536 31.5356C45.2763 31.615 45.3047 31.6887 45.3387 31.7624C45.6336 32.3862 46.3027 32.7775 46.9946 32.7265H47.0229C47.59 32.6811 48.0947 32.3636 48.3783 31.8759C48.6675 31.3825 48.6902 30.7757 48.4463 30.254C48.1458 29.6245 47.4823 29.2389 46.7904 29.2843C46.2063 29.324 45.6959 29.6415 45.4067 30.1349C45.299 30.3164 45.2309 30.5092 45.1969 30.7133L41.1819 31.0593C41.1593 30.8664 41.1309 30.668 41.0855 30.4695C40.836 29.4374 40.2462 28.5811 39.458 27.9856L46.3084 17.6817C46.7734 17.8688 47.2724 17.9482 47.7715 17.9085C47.9359 17.8972 48.1004 17.8688 48.2648 17.8291C49.9888 17.4152 51.0549 15.6799 50.6466 13.9559M21.6401 4.05461C21.5324 3.6463 21.5948 3.21532 21.8103 2.84671C22.0258 2.47811 22.366 2.21725 22.78 2.1095C23.6306 1.88267 24.5039 2.39871 24.7251 3.24934C24.8328 3.66332 24.7761 4.0943 24.555 4.45724C24.3395 4.82584 23.9992 5.0867 23.5852 5.19445C23.1769 5.3022 22.746 5.24549 22.3773 5.02999C22.0087 4.8145 21.7479 4.46858 21.6401 4.05461ZM7.89397 43.9378C7.5764 44.4538 7.08303 44.8111 6.49893 44.9529C5.91484 45.089 5.30805 44.9926 4.79768 44.6807C4.2873 44.3688 3.92436 43.8697 3.78259 43.2856C3.64649 42.7015 3.74289 42.0948 4.05479 41.5844C4.37236 41.0683 4.86573 40.7111 5.44982 40.5693C5.56324 40.5409 5.68233 40.5239 5.79575 40.5126C6.2721 40.4729 6.74278 40.5863 7.15108 40.8415C7.66713 41.1591 8.0244 41.6524 8.16617 42.2365C8.30794 42.8206 8.21153 43.4274 7.89397 43.9378ZM45.9228 30.4355C46.1099 30.1179 46.4275 29.9194 46.7961 29.8911C46.8018 29.8911 46.8074 29.8911 46.8188 29.8911C47.2554 29.8627 47.6921 30.1179 47.8792 30.5149C48.0437 30.8551 48.0267 31.2351 47.8395 31.5583C47.6524 31.8815 47.3405 32.0914 46.9435 32.1084C46.5069 32.1367 46.0702 31.8815 45.8831 31.4902C45.7186 31.1443 45.7356 30.7644 45.9228 30.4411M36.0838 28.5981C36.2369 28.5584 36.3901 28.5357 36.5375 28.5244C36.8097 28.5017 37.0762 28.5244 37.3371 28.5697L35.891 30.7417L34.2465 29.9364C34.6661 29.2616 35.3183 28.7852 36.0838 28.6038M39.6792 30.7984C39.7075 30.9288 39.7302 31.0536 39.7415 31.1783L37.5299 31.3712L37.6036 32.1878L39.7189 32.0063C39.5204 33.1405 38.6697 34.1102 37.4789 34.3937C36.7076 34.5809 35.908 34.4504 35.2275 34.0365C34.547 33.6168 34.0707 32.9647 33.8835 32.1934C33.8155 31.9042 33.7871 31.6037 33.8098 31.3144L36.3901 32.5847L38.6471 29.1879C39.1461 29.5848 39.5204 30.1462 39.6792 30.8097M47.9189 16.4284C47.4539 16.5362 46.9776 16.4625 46.5693 16.2129C46.161 15.9634 45.8774 15.5721 45.764 15.1071C45.5315 14.1487 46.1269 13.1847 47.0853 12.9579C47.5446 12.8501 48.0267 12.9238 48.435 13.1734C48.8376 13.4229 49.1268 13.8142 49.2346 14.2792C49.4614 15.2375 48.8716 16.2016 47.9132 16.4284" fill="#403644"/>
<path d="M7.15223 21.538C7.50382 21.7421 7.89511 21.8272 8.29207 21.7988C8.40549 21.7875 8.51891 21.7705 8.62666 21.7421C9.12569 21.6117 9.52265 21.2998 9.77217 20.8972L13.997 22.3716L14.2635 21.6003L10.0557 20.1316C10.0897 19.8877 10.0784 19.6269 10.0103 19.3717C9.73814 18.3339 8.67769 17.7158 7.63993 17.9823C7.14089 18.1128 6.72125 18.436 6.45471 18.884C6.19385 19.332 6.12013 19.8537 6.25056 20.3584C6.38099 20.8575 6.70423 21.2771 7.14656 21.5436M6.98778 19.1902C7.16924 18.884 7.45279 18.6628 7.79871 18.5778C7.8781 18.5551 7.95182 18.5437 8.02554 18.5381C8.65501 18.487 9.25612 18.8897 9.42058 19.5248C9.60771 20.2337 9.1824 20.9595 8.47354 21.1467C8.12762 21.2374 7.77035 21.1864 7.46413 21.0049C7.1579 20.8234 6.93674 20.5399 6.846 20.194C6.76094 19.848 6.80631 19.4965 6.98778 19.1846" fill="#403644"/>
<path d="M21.4142 20.1883C20.6599 19.7233 19.798 19.5248 18.9417 19.5929C18.7318 19.6099 18.522 19.6439 18.3122 19.6949C17.2461 19.9501 16.3444 20.608 15.7716 21.5436C15.1989 22.4793 15.0231 23.5852 15.2783 24.6456C15.5335 25.7117 16.1856 26.6134 17.127 27.1862C18.0627 27.7589 19.1685 27.9347 20.2289 27.6795C21.2951 27.4243 22.1967 26.7665 22.7695 25.8308C23.3423 24.8951 23.5181 23.7893 23.2629 22.7289C23.0077 21.6627 22.3499 20.7611 21.4142 20.1883Z" fill="white"/>
<path d="M20.0807 26.5396C21.6402 26.1313 22.5758 24.5321 22.1675 22.9726C21.7592 21.4132 20.1601 20.4775 18.6006 20.8858C17.0411 21.2941 16.1054 22.8932 16.5137 24.4527C16.922 26.0122 18.5212 26.9479 20.0807 26.5396Z" fill="#CD6028"/>
<path d="M36.5375 28.5245C36.3843 28.5358 36.2369 28.5585 36.0838 28.5982C35.3126 28.7853 34.6547 29.2617 34.2408 29.9422C33.8211 30.6227 33.6964 31.4223 33.8778 32.1935C34.065 32.9648 34.5413 33.6226 35.2218 34.0366C35.9023 34.4505 36.7019 34.581 37.4732 34.3938C39.0723 34.0082 40.0591 32.3977 39.6791 30.7985C39.3332 29.3524 37.9779 28.4054 36.5375 28.5245Z" fill="white"/>
<path d="M36.2634 29.4829C35.1973 29.7608 34.5565 30.8552 34.8344 31.9213C35.1123 32.9875 36.2067 33.6226 37.2729 33.3504C38.339 33.0725 38.9798 31.9781 38.7019 30.9119C38.424 29.8458 37.3296 29.2107 36.2634 29.4829Z" fill="#3E6EB4"/>
<path d="M26.0867 38.596C26.0867 38.596 26.0753 38.596 26.0696 38.596C25.7124 38.6243 25.4062 38.8171 25.2304 39.1234C25.0489 39.4353 25.0319 39.8039 25.1907 40.1328C25.3721 40.5071 25.7918 40.7566 26.2114 40.7282C26.5914 40.7112 26.8919 40.5127 27.0677 40.2008C27.2492 39.8889 27.2605 39.5203 27.1074 39.1914C26.9259 38.8115 26.512 38.5676 26.0923 38.596" fill="white"/>
<path d="M48.5089 13.0486C48.0665 12.7821 47.5505 12.697 47.0515 12.8161C46.0137 13.0656 45.3786 14.1091 45.6224 15.1412C45.7415 15.6459 46.0534 16.0655 46.49 16.3377C46.9324 16.6042 47.4484 16.6893 47.9475 16.5702C48.9852 16.3207 49.6204 15.2773 49.3765 14.2395C49.2574 13.7405 48.9512 13.3151 48.5089 13.0429" fill="white"/>
<path d="M47.2881 13.8143C46.7891 13.9447 46.4942 14.4551 46.6246 14.9541C46.755 15.4532 47.2654 15.7481 47.7644 15.6176C48.2578 15.4872 48.5584 14.9768 48.4279 14.4778C48.2975 13.9788 47.7871 13.6839 47.2881 13.8143Z" fill="#CD6028"/>
</svg>
