<svg width="123" height="36" viewBox="0 0 123 36" fill="none" xmlns="http://www.w3.org/2000/svg">
<path d="M15.4898 20.1996L12.9889 13.8029H4.92495L2.44678 20.1996H0.0820312L8.03825 0H10.0004L17.9112 20.1996H15.4898ZM12.2574 11.699L9.92098 5.46671C9.61475 4.67846 9.30853 3.71442 8.98529 2.56323C8.78114 3.44221 8.49193 4.41193 8.11765 5.46671L5.75289 11.699H12.2574Z" fill="black"/>
<path d="M35.439 20.1996L32.9325 13.8029H24.8742L22.396 20.1996H20.0312L27.9818 0H29.9496L37.8604 20.1996H35.439ZM32.2066 11.699L29.8702 5.46671C29.5696 4.67846 29.2577 3.71442 28.9345 2.56323C28.7304 3.44221 28.4411 4.41193 28.0669 5.46671L25.7021 11.699H32.2066Z" fill="black"/>
<path d="M56.97 9.95251C56.97 13.27 56.0684 15.8105 54.265 17.5685C52.4617 19.3208 49.8701 20.1998 46.4846 20.1998H40.9102V0.0852051H47.0744C50.2047 0.0852051 52.6318 0.952847 54.3671 2.68813C56.1024 4.42342 56.97 6.84487 56.97 9.95251ZM54.4919 10.0319C54.4919 7.40629 53.8284 5.43283 52.5184 4.10585C51.2028 2.77887 49.2463 2.1097 46.6491 2.1097H43.2522V18.1809H46.1047C48.8947 18.1809 50.9873 17.4948 52.3937 16.1224C53.8 14.7501 54.4975 12.7199 54.4975 10.0319" fill="black"/>
<path d="M63.5942 11.8352V20.1998H61.2578V0.0852051H66.7756C69.2424 0.0852051 71.0684 0.555887 72.2423 1.50292C73.4218 2.44995 74.0116 3.86767 74.0116 5.76741C74.0116 8.42705 72.6619 10.2247 69.9683 11.1604L75.4293 20.1998H72.6619L67.7963 11.8352H63.5999H63.5942ZM63.5942 9.82775H66.8039C68.4541 9.82775 69.6677 9.49884 70.4389 8.84669C71.2102 8.18887 71.5958 7.20781 71.5958 5.89784C71.5958 4.58787 71.2045 3.61248 70.4219 3.02271C69.6337 2.43861 68.3804 2.14373 66.6451 2.14373H63.6055V9.83342L63.5942 9.82775Z" fill="black"/>
<path d="M83.3772 0.0852051H81.0352V20.1998H83.3772V0.0852051Z" fill="black"/>
<path d="M90.7891 20.1998V0.0852051H93.1255V18.0845H102V20.1998H90.7891Z" fill="black"/>
<path d="M119.775 20.1996L117.274 13.8029H109.21L106.732 20.1996H104.367L112.323 0H114.286L122.196 20.1996H119.775ZM116.543 11.699L114.206 5.46671C113.9 4.67846 113.594 3.71442 113.27 2.56323C113.066 3.44221 112.777 4.41193 112.403 5.46671L110.038 11.699H116.543Z" fill="black"/>
<path d="M3.47624 35.148H2.23999V28.6095H0V27.5491H5.71623V28.6095H3.47624V35.148Z" fill="black"/>
<path d="M15.0095 35.148H10.7109V27.5491H15.0095V28.5982H11.9529V30.668H14.8166V31.7058H11.9529V34.0933H15.0095V35.148Z" fill="black"/>
<path d="M23.7121 28.5019C22.9976 28.5019 22.4362 28.7571 22.0279 29.2618C21.6196 29.7665 21.4154 30.464 21.4154 31.36C21.4154 32.256 21.6082 32.9989 22.0052 33.4753C22.3965 33.9516 22.9636 34.1898 23.7121 34.1898C24.0297 34.1898 24.3473 34.1614 24.6478 34.0934C24.9484 34.031 25.2603 33.9459 25.5892 33.8495V34.91C24.9938 35.1368 24.3189 35.2502 23.5647 35.2502C22.4532 35.2502 21.6026 34.91 21.0015 34.2408C20.406 33.566 20.1055 32.6019 20.1055 31.3487C20.1055 30.5548 20.2472 29.8686 20.5421 29.2732C20.8313 28.6834 21.2453 28.2297 21.7954 27.9121C22.3455 27.5946 22.9863 27.4358 23.7235 27.4358C24.5004 27.4358 25.2149 27.5946 25.8727 27.9235L25.4247 28.9613C25.1639 28.8365 24.8917 28.7344 24.6081 28.6437C24.3189 28.553 24.024 28.5076 23.7065 28.5076" fill="black"/>
<path d="M37.0488 35.148H35.8012V31.7228H32.2966V35.148H31.0547V27.5491H32.2966V30.6567H35.8012V27.5491H37.0488V35.148Z" fill="black"/>
<path d="M49.2133 35.148H47.6878L43.9507 29.0915H43.911L43.9337 29.4318C43.9847 30.0726 44.0074 30.6624 44.0074 31.1954V35.148H42.8789V27.5491H44.3873L48.1131 33.5715H48.1471C48.1415 33.4921 48.1245 33.2029 48.1018 32.6982C48.0848 32.1992 48.0734 31.8079 48.0734 31.53V27.5491H49.2133V35.148Z" fill="black"/>
<path d="M61.7906 31.3374C61.7906 32.5737 61.4787 33.5377 60.8606 34.2239C60.2481 34.91 59.3691 35.256 58.2349 35.256C57.1008 35.256 56.2104 34.9157 55.5923 34.2352C54.9742 33.5547 54.668 32.585 54.668 31.3317C54.668 30.0785 54.9742 29.1144 55.598 28.4396C56.2161 27.7648 57.1008 27.4302 58.2463 27.4302C59.3918 27.4302 60.2481 27.7704 60.8662 28.4566C61.4843 29.1428 61.7962 30.1012 61.7962 31.3431M55.9836 31.3374C55.9836 32.2731 56.1708 32.982 56.5507 33.464C56.925 33.946 57.4864 34.1898 58.2293 34.1898C58.9722 34.1898 59.5279 33.9517 59.9022 33.4753C60.2765 32.999 60.4693 32.2844 60.4693 31.3374C60.4693 30.3904 60.2821 29.6985 59.9078 29.2165C59.5392 28.7345 58.9835 28.4963 58.2406 28.4963C57.4977 28.4963 56.9363 28.7345 56.5564 29.2165C56.1764 29.6985 55.9836 30.4074 55.9836 31.3374Z" fill="black"/>
<path d="M67.2461 35.148V27.5491H68.4823V34.0819H71.7034V35.148H67.2461Z" fill="black"/>
<path d="M83.5953 31.3374C83.5953 32.5737 83.289 33.5377 82.6652 34.2239C82.0471 34.91 81.1681 35.256 80.0396 35.256C78.9111 35.256 78.0095 34.9157 77.397 34.2352C76.7846 33.5547 76.4727 32.585 76.4727 31.3317C76.4727 30.0785 76.7846 29.1144 77.4027 28.4396C78.0151 27.7648 78.9055 27.4302 80.051 27.4302C81.1965 27.4302 82.0528 27.7704 82.6709 28.4566C83.289 29.1428 83.6009 30.1012 83.6009 31.3431M77.794 31.3374C77.794 32.2731 77.9811 32.982 78.3611 33.464C78.741 33.946 79.3024 34.1898 80.0396 34.1898C80.7768 34.1898 81.3383 33.9517 81.7125 33.4753C82.0868 32.999 82.2739 32.2844 82.2739 31.3374C82.2739 30.3904 82.0868 29.6985 81.7182 29.2165C81.3439 28.7345 80.7882 28.4963 80.051 28.4963C79.3138 28.4963 78.7467 28.7345 78.3667 29.2165C77.9868 29.6985 77.794 30.4074 77.794 31.3374Z" fill="black"/>
<path d="M92.1577 31.0253H94.9534V34.8418C94.4941 34.9949 94.0518 35.097 93.6321 35.1594C93.2125 35.2218 92.7588 35.2558 92.2711 35.2558C91.1199 35.2558 90.2296 34.9155 89.6115 34.235C88.9877 33.5545 88.6758 32.5905 88.6758 31.3542C88.6758 30.118 89.0217 29.171 89.7306 28.4848C90.4337 27.7929 91.4035 27.447 92.6341 27.447C93.428 27.447 94.1765 27.6001 94.891 27.9064L94.4544 28.9441C93.8419 28.6606 93.2238 28.5188 92.6057 28.5188C91.7948 28.5188 91.154 28.774 90.6833 29.2844C90.2069 29.7948 89.9744 30.4923 89.9744 31.3769C89.9744 32.307 90.1842 33.0158 90.6095 33.4978C91.0349 33.9799 91.6473 34.2237 92.4412 34.2237C92.8439 34.2237 93.2749 34.1727 93.7285 34.0763V32.1141H92.1577V31.048V31.0253Z" fill="black"/>
<path d="M101.84 27.5491H100.598V35.148H101.84V27.5491Z" fill="black"/>
<path d="M111.966 35.148H107.668V27.5491H111.966V28.5982H108.91V30.668H111.774V31.7058H108.91V34.0933H111.966V35.148Z" fill="black"/>
<path d="M121.817 33.0839C121.817 33.7587 121.573 34.2918 121.085 34.6774C120.598 35.063 119.923 35.2559 119.067 35.2559C118.21 35.2559 117.501 35.1198 116.957 34.8532V33.6794C117.303 33.8438 117.672 33.9686 118.063 34.065C118.454 34.1557 118.811 34.2067 119.152 34.2067C119.645 34.2067 120.008 34.1103 120.24 33.9232C120.479 33.7361 120.592 33.4809 120.592 33.169C120.592 32.8854 120.484 32.6473 120.274 32.4488C120.059 32.2503 119.611 32.0178 118.942 31.7456C118.25 31.4621 117.762 31.1445 117.479 30.7872C117.19 30.4243 117.053 29.9933 117.053 29.4886C117.053 28.8535 117.28 28.3544 117.728 27.9915C118.182 27.6285 118.789 27.4414 119.543 27.4414C120.297 27.4414 121 27.6002 121.721 27.9178L121.324 28.9328C120.649 28.6493 120.042 28.5075 119.515 28.5075C119.112 28.5075 118.806 28.5983 118.596 28.7741C118.392 28.9499 118.284 29.1824 118.284 29.4659C118.284 29.6644 118.324 29.8345 118.409 29.9706C118.488 30.1124 118.63 30.2485 118.817 30.3676C119.004 30.4923 119.35 30.6568 119.849 30.8666C120.405 31.0991 120.813 31.3146 121.074 31.5188C121.335 31.7172 121.528 31.9441 121.647 32.1993C121.772 32.4544 121.828 32.7493 121.828 33.0953" fill="black"/>
</svg>
